<?xml version="1.0" encoding="UTF-8"?>
<svg width="950px" height="212px" viewBox="0 0 950 212" version="1.1" xmlns="http://www.w3.org/2000/svg" xmlns:xlink="http://www.w3.org/1999/xlink">
    <title>LogoHorizontal/Dark_NoByline@1x</title>
    <g id="Page-1" stroke="none" stroke-width="1" fill="none" fill-rule="evenodd">
        <g id="LogoHorizontal/Dark_NoByline_v2" transform="translate(-485, -434)">
            <g id="LogoHorizontal/Dark_NoByline" transform="translate(485, 434)">
                <g id="Logo" transform="translate(256, 51)" fill-rule="nonzero">
                    <g id="Logomark">
                        <path d="M45.752,109.744 C73.416,109.744 91.504,90.592 91.504,54.872 C91.504,19.152 73.416,0 45.752,0 C18.088,0 0,19.152 0,54.872 C0,90.592 18.088,109.744 45.752,109.744 Z M45.752,94.392 C29.336,94.392 18.392,82.536 18.392,63.232 L18.392,46.512 C18.392,27.208 29.336,15.352 45.752,15.352 C62.168,15.352 73.112,27.208 73.112,46.512 L73.112,63.232 C73.112,82.536 62.168,94.392 45.752,94.392 Z" id="Shape" fill="#2185D0"></path>
                        <path d="M133.472,107.92 L133.472,65.664 L161.896,65.664 C181.352,65.664 192.752,53.048 192.752,33.744 C192.752,14.44 181.352,1.824 161.896,1.824 L116.296,1.824 L116.296,107.92 L133.472,107.92 Z M133.472,16.872 L160.832,16.872 C169.496,16.872 174.664,21.584 174.664,30.096 L174.664,37.392 C174.664,45.904 169.496,50.616 160.832,50.616 L133.472,50.616 L133.472,16.872 Z" id="Shape" fill="#2185D0"></path>
                        <polygon id="Path" fill="#2185D0" points="283.544 107.92 283.544 92.72 232.776 92.72 232.776 61.712 278.832 61.712 278.832 46.512 232.776 46.512 232.776 17.024 283.544 17.024 283.544 1.824 215.6 1.824 215.6 107.92"></polygon>
                        <polygon id="Path" fill="#2185D0" points="373.032 107.92 392.184 107.92 392.184 1.824 375.768 1.824 375.768 82.992 375.312 82.992 363.608 60.496 328.952 1.824 309.8 1.824 309.8 107.92 326.216 107.92 326.216 26.752 326.672 26.752 338.376 49.248"></polygon>
                        <path d="M461.536,109.744 C479.928,109.744 492.696,100.472 499.84,85.12 L486.008,76.76 C482.208,87.096 474.152,94.392 461.536,94.392 C445.272,94.392 435.24,82.536 435.24,62.928 L435.24,46.816 C435.24,27.208 445.272,15.352 461.536,15.352 C473.848,15.352 481.296,21.888 484.944,31.92 L499.384,24.016 C492.24,8.208 479.928,0 461.536,0 C433.872,0 417,19.304 417,54.872 C417,90.44 433.872,109.744 461.536,109.744 Z" id="Path" fill="#B3DEFF"></path>
                        <path d="M538.876,65.056 L560.004,65.056 L581.284,107.92 L600.436,107.92 L577.484,63.232 C591.012,59.28 598.156,48.792 598.156,33.744 C598.156,14.136 586.452,1.824 567.452,1.824 L521.7,1.824 L521.7,107.92 L538.876,107.92 L538.876,65.056 Z M538.876,50.616 L538.876,16.872 L566.236,16.872 C574.9,16.872 580.068,21.584 580.068,30.096 L580.068,37.392 C580.068,45.904 574.9,50.616 566.236,50.616 L538.876,50.616 Z" id="Shape" fill="#B3DEFF"></path>
                        <polygon id="Path" fill="#B3DEFF" points="693.144 107.92 693.144 92.72 642.376 92.72 642.376 61.712 688.432 61.712 688.432 46.512 642.376 46.512 642.376 17.024 693.144 17.024 693.144 1.824 625.2 1.824 625.2 107.92"></polygon>
                    </g>
                </g>
                <g id="Icon">
                    <circle id="Shape" cx="106" cy="106" r="106"></circle>
                    <path d="M152.384737,10.7661366 C205.002103,36.4293408 226.883733,99.8247931 201.258727,152.363843 C189.682327,176.09898 170.390767,193.558005 147.866194,203.201326 C162.864716,193.717515 175.499973,180.084221 183.85052,162.963063 C207.818984,113.820429 187.411287,54.5521734 138.268653,30.5837092 C89.1260189,6.61524496 29.8577632,27.022942 5.88929902,76.1655762 C4.4294153,79.1587814 3.1341604,82.1895511 2,85.2476209 C3.73810593,76.4968532 6.61975286,67.8244078 10.7143891,59.4291594 C36.3393957,6.89010997 99.7673709,-14.8970675 152.384737,10.7661366 Z" id="Path" fill="#B3DEFF"></path>
                    <path d="M66.1313672,47.4563282 C57.4420558,53.8529377 50.129446,62.3867742 45.0718963,72.7562876 C28.3666031,107.007215 42.5901495,148.315393 76.8410764,165.020686 C111.092003,181.725979 152.400181,167.502433 169.105475,133.251506 C170.393867,130.609911 171.498287,127.926338 172.423736,125.215311 C171.508202,133.648347 169.144294,142.065735 165.213915,150.124205 C146.88879,187.69628 101.450651,203.238292 63.7249927,184.838258 C25.9993341,166.438225 10.2720947,121.063866 28.5972204,83.4917905 C36.7573638,66.7610171 50.293757,54.3985937 66.1313672,47.4563282 Z" id="Path" fill="#B3DEFF"></path>
                </g>
            </g>
        </g>
    </g>
</svg>