<?xml version="1.0" encoding="UTF-8" standalone="no"?>
<svg
   version="1.0"
   width="29.358267mm"
   height="29.68mm"
   id="svg7"
   sodipodi:docname="CRElogo64.svg"
   inkscape:version="1.3.2 (1:1.3.2+202311252150+091e20ef0f)"
   xmlns:inkscape="http://www.inkscape.org/namespaces/inkscape"
   xmlns:sodipodi="http://sodipodi.sourceforge.net/DTD/sodipodi-0.dtd"
   xmlns="http://www.w3.org/2000/svg"
   xmlns:svg="http://www.w3.org/2000/svg">
  <sodipodi:namedview
     id="namedview7"
     pagecolor="#ffffff"
     bordercolor="#000000"
     borderopacity="0.25"
     inkscape:showpageshadow="2"
     inkscape:pageopacity="0.0"
     inkscape:pagecheckerboard="0"
     inkscape:deskcolor="#d1d1d1"
     inkscape:document-units="mm"
     inkscape:zoom="7.0332254"
     inkscape:cx="68.816222"
     inkscape:cy="55.379997"
     inkscape:window-width="3770"
     inkscape:window-height="2089"
     inkscape:window-x="0"
     inkscape:window-y="0"
     inkscape:window-maximized="1"
     inkscape:current-layer="svg7" />
  <defs
     id="defs1">
    <clipPath
       clipPathUnits="userSpaceOnUse"
       id="clipWmfPath1">
      <path
         d="M 0,0 H 1279.9748 V 720 H 0 Z"
         id="path1" />
    </clipPath>
    <pattern
       id="WMFhbasepattern"
       patternUnits="userSpaceOnUse"
       width="6"
       height="6"
       x="0"
       y="0" />
  </defs>
  <g
     inkscape:groupmode="layer"
     id="layer1"
     inkscape:label="bg" />
  <path
     style="display:none;fill:#ffffff;fill-opacity:1;fill-rule:evenodd;stroke:none"
     clip-path="url(#clipWmfPath1)"
     d="M 0,0 H 1279.9748 V 720 H 0 Z"
     id="path2"
     transform="translate(-15.19555,90.35181)"
     sodipodi:insensitive="true" />
  <g
     clip-path="url(#clipWmfPath1)"
     id="g4"
     transform="translate(-342.85849,-296.08819)"
     style="display:none">
    <text
       xml:space="preserve"
       style="font-style:italic;font-variant:normal;font-weight:400;font-size:80.0625px;line-height:125%;font-family:Posterama;text-align:start;letter-spacing:0px;word-spacing:0px;text-anchor:start;fill:#000000;fill-opacity:1;stroke:none"
       transform="translate(467.95347,386.34331)"
       x="0"
       y="0"
       id="text4"><tspan
         sodipodi:role="line"
         x="0"
         y="0"
         id="tspan4"><tspan
           dx="0"
           dy="0"
           style="font-style:italic;font-variant:normal;font-weight:400;font-size:80.0625px;font-family:Posterama;fill:#2f5597"
           id="tspan2">OPEN</tspan><tspan
           dx="-1.290072"
           dy="0"
           style="font-style:italic;font-variant:normal;font-weight:400;font-size:80.0625px;font-family:Posterama;fill:#2f5597"
           id="tspan3">CRE</tspan></tspan></text>
  </g>
  <path
     style="display:inline;fill:#ffffff;fill-opacity:1;fill-rule:evenodd;stroke:none"
     clip-path="url(#clipWmfPath1)"
     d="m 343.76553,351.11811 v 0 l 0.0756,-1.81417 0.0756,-1.81418 0.15117,-1.73858 0.15117,-1.81417 0.30235,-1.81418 0.30234,-1.73858 0.37793,-1.73858 0.45352,-1.73858 0.5291,-1.73859 0.5291,-1.73858 0.60469,-1.66299 0.68028,-1.66299 0.68027,-1.663 0.75586,-1.66299 0.83145,-1.5874 0.90703,-1.5874 0.90703,-1.51181 0.98262,-1.51181 1.05821,-1.51181 1.0582,-1.43622 1.1338,-1.43622 1.13379,-1.36063 1.20937,-1.28504 1.28497,-1.28504 1.28496,-1.28504 1.28496,-1.20945 1.36055,-1.13386 1.43614,-1.13386 1.43614,-1.05827 1.51172,-1.05826 1.51172,-0.98268 1.51172,-0.90709 1.58731,-0.90708 1.58731,-0.8315 1.66289,-0.75591 1.66289,-0.68031 1.6629,-0.68032 1.66289,-0.60472 1.73848,-0.52913 1.73848,-0.52914 1.73848,-0.45354 1.73848,-0.37795 1.73848,-0.30237 1.81407,-0.30236 1.81406,-0.15118 1.73848,-0.15118 1.81407,-0.0756 1.81407,-0.0756 v 0 l 1.81406,0.0756 1.81407,0.0756 1.81407,0.15118 1.81406,0.15118 1.73848,0.30236 1.81407,0.30237 1.73848,0.37795 1.73848,0.45354 1.73848,0.52914 1.66289,0.52913 1.73848,0.60472 1.6629,0.68032 1.66289,0.68031 1.58731,0.75591 1.5873,0.8315 1.58731,0.90708 1.58731,0.90709 1.51172,0.98268 1.43614,1.05826 1.51172,1.05827 1.36055,1.13386 1.36055,1.13386 1.36055,1.20945 1.28496,1.28504 1.20938,1.28504 1.20938,1.28504 1.20937,1.36063 1.1338,1.43622 1.0582,1.43622 0.98262,1.51181 0.98262,1.51181 0.98262,1.51181 0.83144,1.5874 0.83145,1.5874 0.83145,1.66299 0.68027,1.663 0.68028,1.66299 0.60469,1.66299 0.5291,1.73858 0.5291,1.73859 0.37793,1.73858 0.37793,1.73858 0.37793,1.73858 0.22676,1.81418 0.22676,1.81417 0.15117,1.73858 0.0756,1.81418 v 1.81417 0 0 1.81417 l -0.0756,1.81418 -0.15117,1.81417 -0.22676,1.81417 -0.22676,1.73859 -0.37793,1.81417 -0.37793,1.73858 -0.37793,1.73858 -0.5291,1.73859 -0.5291,1.66299 -0.60469,1.73858 -0.68028,1.66299 -0.68027,1.663 -0.83145,1.5874 -0.83145,1.5874 -0.83144,1.5874 -0.98262,1.5874 -0.98262,1.51181 -0.98262,1.43622 -1.0582,1.51181 -1.1338,1.36063 -1.20937,1.36063 -1.20938,1.36063 -1.20938,1.28504 -1.28496,1.20945 -1.36055,1.20945 -1.36055,1.20945 -1.36055,1.13386 -1.51172,1.05827 -1.43614,0.98267 -1.51172,0.98268 -1.58731,0.98268 -1.58731,0.83149 -1.5873,0.8315 -1.58731,0.8315 -1.66289,0.68031 -1.6629,0.68032 -1.73848,0.60472 -1.66289,0.52913 -1.73848,0.52914 -1.73848,0.37795 -1.73848,0.37795 -1.81407,0.37796 -1.73848,0.22677 -1.81406,0.22677 -1.81407,0.15118 -1.81407,0.0756 h -1.81406 v 0 h -1.81407 l -1.81407,-0.0756 -1.73848,-0.15118 -1.81406,-0.22677 -1.81407,-0.22677 -1.73848,-0.37796 -1.73848,-0.37795 -1.73848,-0.37795 -1.73848,-0.52914 -1.73848,-0.52913 -1.66289,-0.60472 -1.6629,-0.68032 -1.66289,-0.68031 -1.66289,-0.8315 -1.58731,-0.8315 -1.58731,-0.83149 -1.51172,-0.98268 -1.51172,-0.98268 -1.51172,-0.98267 -1.43614,-1.05827 -1.43614,-1.13386 -1.36055,-1.20945 -1.28496,-1.20945 -1.28496,-1.20945 -1.28497,-1.28504 -1.20937,-1.36063 -1.13379,-1.36063 -1.1338,-1.36063 -1.0582,-1.51181 -1.05821,-1.43622 -0.98262,-1.51181 -0.90703,-1.5874 -0.90703,-1.5874 -0.83145,-1.5874 -0.75586,-1.5874 -0.68027,-1.663 -0.68028,-1.66299 -0.60469,-1.73858 -0.5291,-1.66299 -0.5291,-1.73859 -0.45352,-1.73858 -0.37793,-1.73858 -0.30234,-1.81417 -0.30235,-1.73859 -0.15117,-1.81417 -0.15117,-1.81417 -0.0756,-1.81418 z"
     id="path4"
     transform="translate(-342.85849,-296.08819)" />
  <path
     style="display:inline;mix-blend-mode:normal;fill:#242e4c;fill-opacity:1;fill-rule:evenodd;stroke:none"
     clip-path="url(#clipWmfPath1)"
     d="m 342.85849,357.84567 v 0 l 0.15117,-3.32598 0.30235,-3.2504 0.5291,-3.25039 0.75586,-3.17481 0.98262,-3.1748 1.13379,-3.09921 1.36055,-3.02362 1.58731,-2.87244 1.73848,-2.79685 1.88965,-2.72126 2.11641,-2.49449 2.26759,-2.4189 2.34316,-2.26772 2.56993,-2.11653 2.7211,-1.88977 2.79669,-1.73858 2.87227,-1.5874 3.02344,-1.36063 3.09903,-1.13386 3.09903,-0.98268 3.2502,-0.7559 3.2502,-0.52914 3.2502,-0.30236 3.32579,-0.0756 v 0 l 3.32579,0.0756 3.2502,0.30236 3.2502,0.52914 3.25021,0.7559 3.09903,0.98268 3.09902,1.13386 3.02345,1.36063 2.87227,1.5874 2.79668,1.73858 2.7211,1.88977 2.56993,2.11653 2.34317,2.26772 2.26758,2.4189 2.11641,2.49449 1.88965,2.72126 1.73848,2.79685 1.58731,2.87244 1.36055,3.02362 1.13379,3.09921 0.98262,3.1748 0.75586,3.17481 0.52911,3.25039 0.30234,3.2504 0.15117,3.32598 v 0 0 l -0.15117,3.32598 -0.30234,3.2504 -0.52911,3.25039 -0.75586,3.25039 -0.98262,3.09922 -1.13379,3.09921 -1.36055,3.02362 -1.58731,2.94803 -1.73848,2.79685 -1.88965,2.64567 -2.11641,2.57008 -2.26758,2.4189 -2.34317,2.19213 -2.56993,2.11653 -2.7211,1.96536 -2.79668,1.73858 -2.87227,1.51181 -3.02345,1.36063 -3.09902,1.20945 -3.09903,0.90708 -3.25021,0.75591 -3.2502,0.52913 -3.2502,0.37796 -3.32579,0.0756 v 0 l -3.32579,-0.0756 -3.2502,-0.37796 -3.2502,-0.52913 -3.2502,-0.75591 -3.09903,-0.90708 -3.09903,-1.20945 -3.02344,-1.36063 -2.87227,-1.51181 -2.79669,-1.73858 -2.7211,-1.96536 -2.56993,-2.11653 -2.34316,-2.19213 -2.26759,-2.4189 -2.11641,-2.57008 -1.88965,-2.64567 -1.73848,-2.79685 -1.58731,-2.94803 -1.36055,-3.02362 -1.13379,-3.09921 -0.98262,-3.09922 -0.75586,-3.25039 -0.5291,-3.25039 -0.30235,-3.2504 z"
     id="path5"
     transform="translate(-342.85849,-296.08819)" />
  <path
     style="display:inline;fill-opacity:1;fill-rule:evenodd;stroke:none;fill:#ffffff"
     clip-path="url(#clipWmfPath1)"
     d="m 354.80109,357.08976 v 0 l 0.0756,-2.41889 0.22676,-2.34331 0.37793,-2.34331 0.5291,-2.34331 0.68028,-2.26771 0.83144,-2.19213 0.98262,-2.19212 1.13379,-2.11654 1.28497,-2.04094 1.43613,-1.96536 1.51172,-1.81417 1.58731,-1.73858 1.73848,-1.663 1.88965,-1.51181 1.88966,-1.36063 2.04082,-1.28504 2.11641,-1.13385 2.192,-0.98268 2.26758,-0.8315 2.26758,-0.68031 2.34317,-0.60473 2.34317,-0.37795 2.34317,-0.22677 2.41875,-0.0756 v 0 l 2.41876,0.0756 2.34317,0.22677 2.34317,0.37795 2.34317,0.60473 2.26758,0.68031 2.26758,0.8315 2.192,0.98268 2.11641,1.13385 2.04082,1.28504 1.88965,1.36063 1.88966,1.51181 1.73848,1.663 1.5873,1.73858 1.58731,1.81417 1.36055,1.96536 1.28496,2.04094 1.1338,2.11654 0.98262,2.19212 0.83144,2.19213 0.68028,2.26771 0.5291,2.34331 0.37793,2.34331 0.22676,2.34331 0.0756,2.41889 v 0 0 l -0.0756,2.4189 -0.22676,2.4189 -0.37793,2.34331 -0.5291,2.26771 -0.68028,2.26772 -0.83144,2.26772 -0.98262,2.19212 -1.1338,2.11654 -1.28496,2.04094 -1.36055,1.88977 -1.58731,1.88976 -1.5873,1.73858 -1.73848,1.5874 -1.88966,1.58741 -1.88965,1.36063 -2.04082,1.28503 -2.11641,1.13386 -2.192,0.98268 -2.26758,0.8315 -2.26758,0.68031 -2.34317,0.52914 -2.34317,0.37795 -2.34317,0.22677 -2.41876,0.0756 v 0 l -2.41875,-0.0756 -2.34317,-0.22677 -2.34317,-0.37795 -2.34317,-0.52914 -2.26758,-0.68031 -2.26758,-0.8315 -2.192,-0.98268 -2.11641,-1.13386 -2.04082,-1.28503 -1.88966,-1.36063 -1.88965,-1.58741 -1.73848,-1.5874 -1.58731,-1.73858 -1.51172,-1.88976 -1.43613,-1.88977 -1.28497,-2.04094 -1.13379,-2.11654 -0.98262,-2.19212 -0.83144,-2.26772 -0.68028,-2.26772 -0.5291,-2.26771 -0.37793,-2.34331 -0.22676,-2.4189 z"
     id="path6"
     transform="translate(-342.85849,-296.08819)" />
  <path
     style="display:inline;fill:#242e4c;fill-opacity:1;fill-rule:evenodd;stroke:none"
     clip-path="url(#clipWmfPath1)"
     d="m 364.92963,352.0252 v 0 l 0.0756,-2.11654 0.15117,-2.04094 0.37793,-2.04095 0.45351,-1.96535 0.60469,-1.96536 0.68028,-1.88976 0.83145,-1.88976 0.98261,-1.81418 1.1338,-1.73858 1.20937,-1.73858 1.28497,-1.5874 1.43613,-1.43623 1.43614,-1.43622 1.58731,-1.28504 1.73848,-1.20944 1.73848,-1.13386 1.81406,-0.98268 1.88965,-0.8315 1.88966,-0.68031 1.96523,-0.60472 1.96524,-0.45355 2.04083,-0.37795 2.04082,-0.15118 2.11641,-0.0756 v 0 l 2.04083,0.0756 2.04082,0.15118 2.04083,0.37795 2.04082,0.45355 1.96524,0.60472 1.88965,0.68031 1.88965,0.8315 1.81407,0.98268 1.73848,1.13386 1.66289,1.20944 1.58731,1.28504 1.51172,1.43622 1.43614,1.43623 1.28496,1.5874 1.20938,1.73858 1.0582,1.73858 0.98262,1.81418 0.83145,1.88976 0.75586,1.88976 0.60469,1.96536 0.45352,1.96535 0.30234,2.04095 0.22676,2.04094 0.0756,2.11654 v 0 0 l -0.0756,2.04094 -0.22676,2.04095 -0.30234,2.04094 -0.45352,2.04095 -0.60469,1.96535 -0.75586,1.88976 -0.83145,1.88977 -0.98262,1.81417 -1.0582,1.73858 -1.20938,1.663 -1.28496,1.5874 -1.43614,1.51181 -1.51172,1.43622 -1.58731,1.28504 -1.66289,1.20945 -1.73848,1.05827 -1.81407,0.98267 -1.88965,0.8315 -1.88965,0.7559 -1.96524,0.60473 -2.04082,0.45354 -2.04083,0.30236 -2.04082,0.22678 -2.04083,0.0756 v 0 l -2.11641,-0.0756 -2.04082,-0.22678 -2.04083,-0.30236 -1.96524,-0.45354 -1.96523,-0.60473 -1.88966,-0.7559 -1.88965,-0.8315 -1.81406,-0.98267 -1.73848,-1.05827 -1.73848,-1.20945 -1.58731,-1.28504 -1.43614,-1.43622 -1.43613,-1.51181 -1.28497,-1.5874 -1.20937,-1.663 -1.1338,-1.73858 -0.98261,-1.81417 -0.83145,-1.88977 -0.68028,-1.88976 -0.60469,-1.96535 -0.45351,-2.04095 -0.37793,-2.04094 -0.15117,-2.04095 z"
     id="path7"
     transform="translate(-342.85849,-296.08819)" />
</svg>
